<?xml version="1.0" encoding="UTF-8" standalone="no" ?>
<!DOCTYPE svg PUBLIC "-//W3C//DTD SVG 1.1//EN" "http://www.w3.org/Graphics/SVG/1.1/DTD/svg11.dtd">
<svg xmlns="http://www.w3.org/2000/svg" xmlns:xlink="http://www.w3.org/1999/xlink" version="1.1" width="1080" height="1080" viewBox="0 0 1080 1080" xml:space="preserve">
<desc>Created with Fabric.js 5.2.4</desc>
<defs>
</defs>
<g transform="matrix(1 0 0 1 540 540)" id="e0031c1c-06bb-4a0b-9a76-a0e0f9a4e9f0"  >
<rect style="stroke: none; stroke-width: 1; stroke-dasharray: none; stroke-linecap: butt; stroke-dashoffset: 0; stroke-linejoin: miter; stroke-miterlimit: 4; fill: rgb(255,255,255); fill-rule: nonzero; opacity: 1; visibility: hidden;" vector-effect="non-scaling-stroke"  x="-540" y="-540" rx="0" ry="0" width="1080" height="1080" />
</g>
<g transform="matrix(1 0 0 1 540 540)" id="1de086ec-0e9f-43bd-940c-5aa7320ddd53"  >
</g>
<g transform="matrix(1 0 0 1 540 540)" id="e365d2ab-9005-4269-8e40-1ea1a99c8fea"  >
<path style="stroke: rgb(0,0,0); stroke-width: 0; stroke-dasharray: none; stroke-linecap: butt; stroke-dashoffset: 0; stroke-linejoin: miter; stroke-miterlimit: 4; fill: rgb(61,112,212); fill-rule: nonzero; opacity: 1;" vector-effect="non-scaling-stroke"  transform=" translate(-256, -256)" d="M 48 64 C 21.5 64 0 85.5 0 112 C 0 127.1 7.1 141.3 19.2 150.4 L 236.8 313.6 C 248.20000000000002 322.1 263.8 322.1 275.2 313.6 L 492.8 150.4 C 504.90000000000003 141.3 512 127.10000000000001 512 112 C 512 85.5 490.5 64 464 64 L 48 64 z M 0 176 L 0 384 C 0 419.3 28.7 448 64 448 L 448 448 C 483.3 448 512 419.3 512 384 L 512 176 L 294.4 339.2 C 271.59999999999997 356.3 240.39999999999998 356.3 217.59999999999997 339.2 L 0 176 z" stroke-linecap="round" />
</g>
<g transform="matrix(NaN NaN NaN NaN 0 0)"  >
<g style=""   >
</g>
</g>
<g transform="matrix(NaN NaN NaN NaN 0 0)"  >
<g style=""   >
</g>
</g>
</svg>