<svg version="1.1" id="Layer_1" xmlns="http://www.w3.org/2000/svg" xmlns:xlink="http://www.w3.org/1999/xlink" x="0px" y="0px"
	 width="100%" viewBox="0 0 90 90" enable-background="new 0 0 90 90" xml:space="preserve">
<path fill="#000000" opacity="1.000000" stroke="none" 
	d="
M59.000000,91.000000 
	C39.333332,91.000000 20.166666,91.000000 1.000000,91.000000 
	C1.000000,61.000000 1.000000,31.000000 1.000000,1.000000 
	C31.000000,1.000000 61.000000,1.000000 91.000000,1.000000 
	C91.000000,31.000000 91.000000,61.000000 91.000000,91.000000 
	C80.500000,91.000000 70.000000,91.000000 59.000000,91.000000 
M19.080334,14.446393 
	C13.689909,18.568356 10.933254,23.951857 10.981363,30.808186 
	C11.052639,40.966396 10.981122,51.125519 11.004807,61.284176 
	C11.031555,72.756233 19.183697,80.962097 30.594294,80.993942 
	C40.752926,81.022285 50.911720,81.013306 61.070404,80.996490 
	C73.216995,80.976387 80.973206,73.242577 80.996178,61.124783 
	C81.015121,51.132641 81.008469,41.140434 80.997910,31.148270 
	C80.985489,19.398396 72.600487,11.014276 60.850136,11.002144 
	C50.857975,10.991827 40.854553,10.728025 30.879410,11.140184 
	C27.135206,11.294888 23.456676,13.039043 19.080334,14.446393 
z"/>
<path fill="#3D70D4" opacity="1.000000" stroke="none" 
	d="
M19.414268,14.252472 
	C23.456676,13.039043 27.135206,11.294888 30.879410,11.140184 
	C40.854553,10.728025 50.857975,10.991827 60.850136,11.002144 
	C72.600487,11.014276 80.985489,19.398396 80.997910,31.148270 
	C81.008469,41.140434 81.015121,51.132641 80.996178,61.124783 
	C80.973206,73.242577 73.216995,80.976387 61.070404,80.996490 
	C50.911720,81.013306 40.752926,81.022285 30.594294,80.993942 
	C19.183697,80.962097 11.031555,72.756233 11.004807,61.284176 
	C10.981122,51.125519 11.052639,40.966396 10.981363,30.808186 
	C10.933254,23.951857 13.689909,18.568356 19.414268,14.252472 
M33.742054,17.000538 
	C22.212858,17.198202 17.018496,22.480610 17.001841,34.048843 
	C16.990093,42.208916 16.880371,50.371185 17.028641,58.528584 
	C17.232258,69.730927 22.283182,74.726318 33.312191,74.963028 
	C41.801437,75.145241 50.302246,75.174690 58.789753,74.955742 
	C69.854500,74.670311 74.637581,69.724335 74.950798,58.929577 
	C75.197021,50.443565 75.127083,41.942341 74.968956,33.452129 
	C74.760460,22.257179 69.719055,17.279421 58.670643,17.035105 
	C50.680992,16.858425 42.684292,17.000547 33.742054,17.000538 
z"/>
<path fill="#000000" opacity="1.000000" stroke="none" 
	d="
M34.216393,17.000515 
	C42.684292,17.000547 50.680992,16.858425 58.670643,17.035105 
	C69.719055,17.279421 74.760460,22.257179 74.968956,33.452129 
	C75.127083,41.942341 75.197021,50.443565 74.950798,58.929577 
	C74.637581,69.724335 69.854500,74.670311 58.789753,74.955742 
	C50.302246,75.174690 41.801437,75.145241 33.312191,74.963028 
	C22.283182,74.726318 17.232258,69.730927 17.028641,58.528584 
	C16.880371,50.371185 16.990093,42.208916 17.001841,34.048843 
	C17.018496,22.480610 22.212858,17.198202 34.216393,17.000515 
M44.873772,49.934467 
	C46.327419,49.378784 48.085110,49.169788 49.182247,48.207592 
	C54.017265,43.967270 58.650478,39.497475 63.380966,35.137028 
	C65.280067,33.386486 67.241310,31.703342 69.849442,29.390888 
	C53.458393,29.390888 38.342117,29.390888 22.017277,29.390888 
	C29.967421,36.656700 37.071209,43.149010 44.873772,49.934467 
M51.497818,62.999184 
	C57.229912,62.999184 62.962006,62.999184 68.345032,62.999184 
	C63.326378,57.988033 58.418945,53.087940 53.716030,48.392056 
	C51.624664,49.569489 48.654938,52.559860 45.736015,52.511066 
	C42.862263,52.463024 40.040016,49.333977 37.195171,47.556797 
	C37.614746,47.913857 38.034317,48.270916 38.453892,48.627975 
	C33.547371,53.384644 28.640852,58.141312 23.629942,62.999184 
	C32.383751,62.999184 41.441307,62.999184 51.497818,62.999184 
M67.566513,57.047817 
	C68.715675,58.080070 69.864845,59.112324 71.703957,60.764328 
	C71.703957,50.561825 71.703957,41.438583 71.703957,31.152029 
	C66.888550,35.465271 62.843636,39.180573 58.691730,42.772182 
	C56.261932,44.874084 56.805252,46.522366 58.923798,48.465969 
	C61.734993,51.045013 64.343971,53.844479 67.566513,57.047817 
M20.000772,43.533463 
	C20.000772,48.936607 20.000772,54.339756 20.000772,59.742901 
	C20.392366,59.919456 20.783962,60.096008 21.175556,60.272560 
	C25.580425,55.874683 30.041372,51.529877 34.318115,47.010746 
	C34.843761,46.455311 34.839211,44.496681 34.310493,43.987125 
	C29.984982,39.818382 25.476685,35.839291 20.000772,30.875021 
	C20.000772,35.709660 20.000772,39.129856 20.000772,43.533463 
z"/>
<path fill="#3D70D4" opacity="1.000000" stroke="none" 
	d="
M44.524384,49.787895 
	C37.071209,43.149010 29.967421,36.656700 22.017277,29.390888 
	C38.342117,29.390888 53.458393,29.390888 69.849442,29.390888 
	C67.241310,31.703342 65.280067,33.386486 63.380966,35.137028 
	C58.650478,39.497475 54.017265,43.967270 49.182247,48.207592 
	C48.085110,49.169788 46.327419,49.378784 44.524384,49.787895 
z"/>
<path fill="#3D70D4" opacity="1.000000" stroke="none" 
	d="
M50.998337,62.999184 
	C41.441307,62.999184 32.383751,62.999184 23.629942,62.999184 
	C28.640852,58.141312 33.547371,53.384644 38.453892,48.627975 
	C38.034317,48.270916 37.614746,47.913857 37.195171,47.556797 
	C40.040016,49.333977 42.862263,52.463024 45.736015,52.511066 
	C48.654938,52.559860 51.624664,49.569489 53.716030,48.392056 
	C58.418945,53.087940 63.326378,57.988033 68.345032,62.999184 
	C62.962006,62.999184 57.229912,62.999184 50.998337,62.999184 
z"/>
<path fill="#3D70D4" opacity="1.000000" stroke="none" 
	d="
M67.303177,56.798527 
	C64.343971,53.844479 61.734993,51.045013 58.923798,48.465969 
	C56.805252,46.522366 56.261932,44.874084 58.691730,42.772182 
	C62.843636,39.180573 66.888550,35.465271 71.703957,31.152029 
	C71.703957,41.438583 71.703957,50.561825 71.703957,60.764328 
	C69.864845,59.112324 68.715675,58.080070 67.303177,56.798527 
z"/>
<path fill="#3D70D4" opacity="1.000000" stroke="none" 
	d="
M20.000772,43.041756 
	C20.000772,39.129856 20.000772,35.709660 20.000772,30.875021 
	C25.476685,35.839291 29.984982,39.818382 34.310493,43.987125 
	C34.839211,44.496681 34.843761,46.455311 34.318115,47.010746 
	C30.041372,51.529877 25.580425,55.874683 21.175556,60.272560 
	C20.783962,60.096008 20.392366,59.919456 20.000772,59.742901 
	C20.000772,54.339756 20.000772,48.936607 20.000772,43.041756 
z"/>
</svg>